<svg width="96" height="97" viewBox="0 0 96 97" fill="none" xmlns="http://www.w3.org/2000/svg">
<path d="M47.17 48.3119L50.5 46.7719C50.92 46.5619 51.08 46.0619 50.92 45.6519C50.71 45.2319 50.21 45.0719 49.8 45.2319L46.1 46.9819C45.85 47.1119 45.68 47.3119 45.64 47.5619L44.52 52.9319H46.23L47.19 48.3119H47.17Z" fill="white"/>
<path d="M30.93 52.2919C31.3 51.5819 32.01 51.1719 32.76 51.1719H34.34C33.97 49.3019 32.3 47.9219 30.35 47.9219C28.1 47.9219 26.27 49.7519 26.27 52.0019C26.27 54.2519 28.1 56.1219 30.35 56.1219C30.93 56.1219 31.47 55.9919 31.97 55.7919L31.06 54.4619C30.64 53.8419 30.56 53.0019 30.93 52.3019V52.2919Z" fill="white"/>
<path d="M47.7399 58.7817H36.1699L41.1199 65.7717V75.9617L38.0799 78.7917H45.8199L42.7799 75.9617V65.7717L47.7299 58.7817H47.7399Z" fill="white"/>
<path d="M51.5201 53.0821C51.4801 53.0021 51.3901 52.8721 51.1501 52.8721H32.7601C32.5501 52.8721 32.4301 53.0421 32.3901 53.0821C32.3501 53.1221 32.3101 53.3321 32.4301 53.5021L35.0101 57.1221H48.9501L51.5301 53.5021C51.6101 53.2921 51.5701 53.1321 51.5301 53.0821H51.5201Z" fill="white"/>
<path d="M52.37 33.3421C52.59 33.2421 52.71 33.0121 52.67 32.7721C52.63 32.5321 52.42 32.3521 52.17 32.3521C50.04 32.4021 47.92 32.5921 45.82 32.9421C41.81 33.6121 37.92 34.8821 34.28 36.7021C37.81 29.8621 46.12 27.0221 53.1 30.2821C53.32 30.3821 53.59 30.3121 53.73 30.1121C53.88 29.9221 53.88 29.6521 53.73 29.4621C52.05 27.7721 50.24 26.2321 48.3 24.8621C45 22.5021 41.36 20.6421 37.51 19.3521C38.91 18.8921 40.37 18.6621 41.84 18.6421C48.02 18.6421 53.49 22.6421 55.38 28.5221C55.48 28.7921 55.77 28.9221 56.03 28.8321C56.17 28.7821 56.29 28.6721 56.34 28.5221C58.23 22.6421 63.7 18.6421 69.88 18.6421C71.37 18.6421 72.85 18.8821 74.27 19.3321C70.42 20.6221 66.78 22.4721 63.48 24.8421C61.54 26.2221 59.73 27.7621 58.05 29.4421C57.9 29.6321 57.9 29.9021 58.05 30.0921C58.19 30.2921 58.46 30.3621 58.68 30.2621C65.67 26.9921 74 29.8321 77.53 36.7021C73.89 34.8821 70 33.6221 65.99 32.9521C63.89 32.6121 61.77 32.4121 59.64 32.3621C59.39 32.3621 59.18 32.5421 59.14 32.7821C59.1 33.0221 59.22 33.2521 59.44 33.3521C65.4 35.7521 69.01 41.8321 68.27 48.2121C66.25 44.6921 63.72 41.4921 60.75 38.7221C59.97 37.9721 59.11 37.2221 58.22 36.5221C58.13 36.4421 58.02 36.4021 57.9 36.4021C57.82 36.3821 57.73 36.3821 57.64 36.4021C57.47 36.5121 57.37 36.7021 57.38 36.9021L57.67 39.9121H54.45L54.75 36.6321C54.76 36.4321 54.67 36.2521 54.49 36.1521C54.32 36.0321 54.09 36.0321 53.92 36.1521C52.9 36.9521 51.92 37.7921 51.02 38.6521C48.05 41.4221 45.51 44.6221 43.5 48.1421C42.76 41.7621 46.37 35.6821 52.33 33.2821V33.3421H52.37Z" fill="white"/>
<path d="M54.7401 40.9419H57.4401L57.8601 45.3319H54.3201L54.7401 40.9419Z" fill="white"/>
<path d="M58.1001 51.3519H54.0701L54.5501 46.4019H57.6601L58.1301 51.3519H58.1001Z" fill="white"/>
<path d="M58.3501 57.8321H53.8401C53.8401 57.8321 53.8301 57.7721 53.8401 57.7421L54.3501 52.3521H57.8901L58.3701 57.7521C58.3701 57.7521 58.3701 57.8021 58.3501 57.8321Z" fill="white"/>
<path d="M58.6 64.422H53.59C53.57 64.372 53.57 64.312 53.59 64.252L54.1 58.832H58.13L58.66 64.252C58.66 64.312 58.64 64.372 58.6 64.422Z" fill="white"/>
<path d="M58.8101 71.2921H53.3801C53.3401 71.2221 53.31 71.1421 53.3 71.0621L53.84 65.3721H58.3501L58.9201 71.1021C58.9001 71.1721 58.85 71.2321 58.8 71.2821L58.8101 71.2921Z" fill="white"/>
<path d="M58.55 72.3521L59.14 78.3721C59.14 78.4821 59.11 78.5921 59.03 78.6721C58.96 78.7521 58.85 78.7921 58.74 78.7921H53.43C53.32 78.7921 53.22 78.7521 53.14 78.6721C53.06 78.5921 53.03 78.4821 53.03 78.3721L53.62 72.3521H58.54H58.55Z" fill="white"/>
</svg>
