<svg width="96" height="97" viewBox="0 0 96 97" fill="none" xmlns="http://www.w3.org/2000/svg">
<path d="M52.215 26.1445L48.2739 30.0853" stroke="white" stroke-width="3" stroke-miterlimit="10" stroke-linecap="round" stroke-linejoin="round"/>
<path d="M45.1295 23L41.1841 26.9415" stroke="white" stroke-width="3" stroke-miterlimit="10" stroke-linecap="round" stroke-linejoin="round"/>
<path d="M65.6185 66.5165L70.9557 61.1821L61.9861 40.6581L69.2826 33.7214C71.9871 31.1473 72.5664 27.4162 70.5783 25.4271C68.5858 23.4321 64.8521 24.0105 62.2849 26.7162L55.3424 34.0181L34.8207 25.0431L29.4869 30.3786L46.8032 43.0018L38.1248 52.13L26.2052 46.9218L23 50.1277L34.0174 58.1644C33.6989 59.5016 33.8511 60.694 34.5771 61.4235C35.3053 62.1496 36.4943 62.2985 37.838 61.98L45.8643 72.9997L49.0709 69.7895L43.8633 57.8761L52.9959 49.1979L65.6185 66.5165Z" stroke="white" stroke-width="3" stroke-miterlimit="10" stroke-linecap="round" stroke-linejoin="round"/>
<path d="M69.8555 43.7905L65.9141 47.7321" stroke="white" stroke-width="3" stroke-miterlimit="10" stroke-linecap="round" stroke-linejoin="round"/>
<path d="M73.0002 50.876L69.0591 54.8175" stroke="white" stroke-width="3" stroke-miterlimit="10" stroke-linecap="round" stroke-linejoin="round"/>
</svg>
