<svg width="96" height="97" viewBox="0 0 96 97" fill="none" xmlns="http://www.w3.org/2000/svg">
<path d="M59.8894 28.5C55.4641 28.5086 51.1627 29.9623 47.6394 32.64C44.6228 30.3497 41.0266 28.9472 37.2559 28.5904C33.4852 28.2337 29.6898 28.9368 26.2972 30.6207C22.9045 32.3046 20.0494 34.9023 18.0535 38.1212C16.0575 41.3402 15 45.0525 15 48.84C15 52.6275 16.0575 56.3398 18.0535 59.5588C20.0494 62.7777 22.9045 65.3754 26.2972 67.0593C29.6898 68.7432 33.4852 69.4463 37.2559 69.0896C41.0266 68.7328 44.6228 67.3303 47.6394 65.04C50.2116 66.9869 53.2102 68.2938 56.3874 68.8527C59.5645 69.4115 62.8291 69.2062 65.9112 68.2538C68.9934 67.3013 71.8046 65.6291 74.1127 63.3753C76.4207 61.1215 78.1593 58.3508 79.1847 55.2921C80.2101 52.2335 80.4929 48.9747 80.0098 45.7852C79.5266 42.5956 78.2914 39.5668 76.4061 36.9491C74.5209 34.3313 72.0397 32.1998 69.1677 30.7307C66.2957 29.2615 63.1154 28.4969 59.8894 28.5ZM17.0494 48.84C17.0449 45.4687 17.9712 42.1616 19.7263 39.2832C21.4814 36.4048 23.9971 34.0669 26.9961 32.527C29.9952 30.9871 33.3612 30.3052 36.7231 30.5562C40.085 30.8073 43.3124 31.9817 46.0494 33.95C45.5894 34.38 45.1394 34.81 44.7394 35.26C44.5294 35.5 44.3394 35.75 44.1394 36C41.5629 34.227 38.507 33.2816 35.3794 33.29C31.2553 33.29 27.3001 34.9283 24.3839 37.8445C21.4677 40.7607 19.8294 44.7159 19.8294 48.84C19.8294 52.9641 21.4677 56.9193 24.3839 59.8355C27.3001 62.7517 31.2553 64.39 35.3794 64.39C38.8665 64.4048 42.2551 63.2341 44.9894 61.07C45.7151 60.5056 46.3849 59.8727 46.9894 59.18C49.1666 56.7304 50.5147 53.6558 50.8415 50.3949C51.1684 47.1339 50.4572 43.853 48.8094 41.02C49.1066 40.6086 49.4271 40.2147 49.7694 39.84C50.0844 39.4888 50.4182 39.155 50.7694 38.84C52.7289 41.8068 53.7722 45.2845 53.7694 48.84C53.7521 53.3659 52.0683 57.7269 49.0394 61.09C48.4192 61.7736 47.7508 62.4119 47.0394 63C44.3565 65.2119 41.0998 66.615 37.6495 67.0456C34.1992 67.4762 30.6975 66.9166 27.5533 65.432C24.409 63.9474 21.7519 61.5991 19.892 58.6613C18.0321 55.7234 17.0462 52.3171 17.0494 48.84ZM42.9694 37.61C40.7432 40.934 39.5547 44.8444 39.5547 48.845C39.5547 52.8456 40.7432 56.756 42.9694 60.08C40.736 61.5941 38.0977 62.3991 35.3994 62.39C31.8057 62.39 28.3592 60.9624 25.8181 58.4213C23.277 55.8802 21.8494 52.4337 21.8494 48.84C21.8494 45.2463 23.277 41.7998 25.8181 39.2587C28.3592 36.7176 31.8057 35.29 35.3994 35.29C38.0989 35.2826 40.7376 36.0913 42.9694 37.61ZM47.6394 43.04C48.4954 44.8537 48.9393 46.8344 48.9393 48.84C48.9393 50.8456 48.4954 52.8263 47.6394 54.64C46.7835 52.8263 46.3396 50.8456 46.3396 48.84C46.3396 46.8344 46.7835 44.8537 47.6394 43.04ZM52.3194 37.6C54.5529 36.0859 57.1911 35.2809 59.8894 35.29C63.4831 35.29 66.9296 36.7176 69.4707 39.2587C72.0118 41.7998 73.4394 45.2463 73.4394 48.84C73.4394 52.4337 72.0118 55.8802 69.4707 58.4213C66.9296 60.9624 63.4831 62.39 59.8894 62.39C57.1865 62.3995 54.544 61.5907 52.3094 60.07C54.5356 56.746 55.7241 52.8356 55.7241 48.835C55.7241 44.8344 54.5356 40.924 52.3094 37.6H52.3194ZM59.8894 67.18C56.0599 67.1716 52.3289 65.9652 49.2194 63.73C49.6794 63.3 50.1294 62.87 50.5294 62.42C50.7394 62.18 50.9294 61.93 51.1294 61.68C53.7059 63.453 56.7618 64.3984 59.8894 64.39C64.0135 64.39 67.9687 62.7517 70.8849 59.8355C73.8011 56.9193 75.4394 52.9641 75.4394 48.84C75.4394 44.7159 73.8011 40.7607 70.8849 37.8445C67.9687 34.9283 64.0135 33.29 59.8894 33.29C56.4023 33.2752 53.0137 34.4459 50.2794 36.61C49.5537 37.1744 48.8839 37.8074 48.2794 38.5C46.1022 40.9496 44.7541 44.0242 44.4273 47.2852C44.1005 50.5461 44.8117 53.827 46.4594 56.66C46.1679 57.073 45.8506 57.4671 45.5094 57.84C45.1945 58.1912 44.8606 58.5251 44.5094 58.84C42.55 55.8732 41.5067 52.3955 41.5094 48.84C41.5267 44.3141 43.2106 39.9531 46.2394 36.59C46.8596 35.9064 47.528 35.2681 48.2394 34.68C50.5106 32.8105 53.1982 31.5148 56.0754 30.9021C58.9526 30.2895 61.9349 30.378 64.7708 31.16C67.6066 31.9421 70.2127 33.3949 72.3691 35.3957C74.5255 37.3965 76.169 39.8867 77.1609 42.6561C78.1528 45.4255 78.4639 48.3929 78.0681 51.3079C77.6722 54.2228 76.581 56.9997 74.8866 59.4043C73.1921 61.809 70.944 63.7707 68.3321 65.124C65.7202 66.4773 62.8211 67.1825 59.8794 67.18H59.8894Z" fill="white"/>
</svg>
