<svg width="96" height="97" viewBox="0 0 96 97" fill="none" xmlns="http://www.w3.org/2000/svg">
<path d="M72.9376 51.8917C72.5218 49.7415 71.3771 47.8005 69.6966 46.3962C68.0161 44.9919 65.9026 44.2103 63.7127 44.1833C63.2239 42.9159 62.6584 41.6794 62.0194 40.4807C60.9095 38.5108 59.5828 36.6713 58.0641 34.9963C59.5871 32.3544 60.0428 29.2303 59.3381 26.2633C58.6334 23.2964 56.8214 20.711 54.2731 19.0361C51.8886 17.4362 49.0096 16.744 46.1584 17.085C43.3073 17.4261 40.6728 18.7778 38.7329 20.895C36.7931 23.0121 35.6764 25.7545 35.5854 28.6246C35.4944 31.4946 36.4351 34.3022 38.237 36.538L20.6087 63.5049C20.338 63.923 20.1524 64.3904 20.0624 64.8803C19.9724 65.3702 19.9798 65.873 20.0843 66.3601C20.1887 66.8471 20.3881 67.3088 20.6711 67.7187C20.954 68.1286 21.315 68.4788 21.7334 68.7491C22.5758 69.2879 23.5969 69.4719 24.5744 69.2613C25.5519 69.0506 26.4066 68.4623 26.9524 67.6245L31.7164 70.7331C32.2262 71.0704 32.8238 71.2505 33.435 71.2512C33.6537 71.2699 33.8735 71.2699 34.0921 71.2512C34.4985 71.1667 34.8841 71.0026 35.2268 70.7683C35.5695 70.5341 35.8624 70.2344 36.0887 69.8865C36.5442 69.1849 36.7042 68.3319 36.5338 67.513C36.3634 66.6941 35.8764 65.9757 35.1789 65.5141L30.4148 62.3929L31.1098 61.344L32.6894 62.3802C33.0368 62.6069 33.4254 62.7626 33.8332 62.8385C34.2409 62.9144 34.6596 62.909 35.0652 62.8225C35.473 62.742 35.8603 62.5795 36.2035 62.345C36.5467 62.1104 36.8387 61.8085 37.0618 61.4577C37.2912 61.1116 37.4496 60.7234 37.5277 60.3155C37.6058 59.9077 37.602 59.4884 37.5167 59.082C37.3433 58.2624 36.8527 57.5446 36.1519 57.0854L34.5597 56.0492L44.5807 40.7208C46.4606 41.2208 48.434 41.2555 50.3304 40.8219C50.9116 42.0266 51.557 43.1993 52.2638 44.3349C53.2632 45.8597 54.374 47.3085 55.5873 48.6693C54.3273 50.6824 53.8758 53.0977 54.3236 55.43L57.3943 71.5671C57.8635 74.0439 59.2974 76.2328 61.3805 77.6523C62.412 78.3552 63.5718 78.8481 64.7937 79.1027C66.0156 79.3574 67.2757 79.3689 68.5021 79.1366C69.7284 78.9042 70.897 78.4326 71.9411 77.7487C72.9852 77.0647 73.8844 76.1818 74.5873 75.1504C75.2901 74.1189 75.783 72.9592 76.0377 71.7372C76.2923 70.5153 76.3038 69.2552 76.0715 68.0289L72.9376 51.8917ZM44.4796 38.0039C44.2121 37.9102 43.921 37.909 43.6528 38.0007C43.3847 38.0924 43.1551 38.2715 43.0011 38.5093L31.767 55.6954C31.5853 55.9755 31.5218 56.3161 31.5905 56.6429C31.6592 56.9696 31.8544 57.2559 32.1334 57.4392L34.7745 59.1705C34.9116 59.263 35.0104 59.4023 35.0525 59.5622C35.0841 59.6853 35.077 59.8151 35.0322 59.934C34.9875 60.053 34.9072 60.1552 34.8024 60.227C34.6975 60.2987 34.5731 60.3365 34.446 60.3351C34.319 60.3337 34.1954 60.2933 34.0921 60.2193L31.4384 58.5007C31.1583 58.319 30.8176 58.2556 30.4909 58.3243C30.1641 58.3929 29.8778 58.5881 29.6945 58.8672L27.6221 62.039C27.4402 62.3191 27.3766 62.6599 27.4452 62.9868C27.514 63.3135 27.7094 63.5997 27.9886 63.7829L33.8015 67.5739C33.942 67.6687 34.0413 67.8132 34.0795 67.9783C34.1107 68.1397 34.0791 68.307 33.991 68.4459C33.898 68.5873 33.7531 68.6865 33.5876 68.7219C33.4221 68.7574 33.2493 68.7263 33.1065 68.6354L27.2935 64.8444C27.0865 64.7107 26.845 64.6404 26.5985 64.6422C26.5147 64.6303 26.4296 64.6303 26.3458 64.6422C26.019 64.711 25.7328 64.9064 25.5497 65.1856L24.8546 66.2471C24.6713 66.5261 24.3851 66.7213 24.0583 66.79C23.7315 66.8587 23.3909 66.7952 23.1108 66.6135C22.9708 66.5227 22.8503 66.4051 22.756 66.2675C22.6618 66.1298 22.5957 65.9749 22.5617 65.8116C22.5276 65.6483 22.5262 65.4799 22.5575 65.3161C22.5889 65.1522 22.6524 64.9962 22.7443 64.857L40.8907 37.0561C41.0213 36.8187 41.0722 36.5457 41.0358 36.2772C40.9994 36.0087 40.8776 35.759 40.6885 35.565C39.5046 34.3145 38.6838 32.765 38.3143 31.0831C37.9447 29.4012 38.0404 27.6504 38.591 26.0188C39.1417 24.3871 40.1264 22.9364 41.4395 21.8223C42.7526 20.7082 44.3444 19.973 46.0439 19.6955C47.7435 19.418 49.4865 19.6088 51.0857 20.2474C52.6849 20.886 54.08 21.9482 55.1209 23.32C56.1619 24.6918 56.8095 26.3213 56.994 28.0334C57.1786 29.7455 56.8932 31.4755 56.1686 33.0376C55.6631 32.5448 55.145 32.1025 54.6395 31.6981C55.0631 30.4365 55.1027 29.0775 54.7533 27.7934C54.2373 25.9052 53.0397 24.2753 51.3919 23.2189C49.8261 22.1115 47.887 21.6657 45.9948 21.9779C44.1026 22.2901 42.4095 23.3352 41.2825 24.8869C40.7684 25.6756 40.4292 26.5652 40.2875 27.4959C40.1458 28.4266 40.205 29.3769 40.4611 30.2828C40.9376 31.9886 41.9584 33.4921 43.3682 34.5642C44.778 35.6364 46.4994 36.2185 48.2706 36.2221C48.7373 36.2203 49.2028 36.1737 49.6606 36.0831H49.7491C51.1685 35.805 52.459 35.0732 53.4264 33.998C53.9156 34.3945 54.3838 34.8163 54.8291 35.2617C53.5835 36.7116 51.9277 37.7498 50.08 38.2394C48.2323 38.729 46.2796 38.6468 44.4796 38.0039ZM50.343 33.1893C50.3024 32.8239 50.3024 32.4552 50.343 32.0899C50.7013 32.1885 51.0453 32.3329 51.3666 32.5195C51.0601 32.7979 50.71 33.0241 50.3304 33.1893H50.343ZM48.8392 29.929C47.9041 30.5608 47.5756 31.7992 47.8662 33.72C46.9238 33.6508 46.0147 33.3419 45.2251 32.8228C44.0974 32.1099 43.2771 31.0011 42.9252 29.7142C42.7602 29.1521 42.7176 28.5612 42.8005 27.9813C42.8833 27.4015 43.0896 26.8461 43.4054 26.3528C43.8021 25.7645 44.3391 25.2843 44.9679 24.9556C45.5967 24.6268 46.2974 24.4599 47.0069 24.4699C48.0768 24.4726 49.1225 24.7889 50.0145 25.3797C51.1448 26.081 51.9771 27.1742 52.3523 28.4505C52.5146 29.0256 52.5534 29.6285 52.466 30.2196C50.9369 29.4488 49.7112 29.3351 48.8266 29.929H48.8392ZM52.7566 39.9499C54.1953 39.2612 55.4836 38.2949 56.5477 37.1067C57.7769 38.5207 58.8567 40.0579 59.7701 41.6938C60.2649 42.6137 60.712 43.5585 61.1095 44.5245C59.6443 44.9236 58.2965 45.6691 57.1795 46.698C56.163 45.4966 55.2259 44.2303 54.3742 42.9069C53.7773 41.9517 53.2331 40.9646 52.744 39.9499H52.7566ZM68.0092 76.5966C66.1966 76.9373 64.3227 76.5463 62.7976 75.5091C61.2725 74.4718 60.2203 72.8727 59.8711 71.0617L56.8004 54.9877C56.5194 53.506 56.7371 51.9729 57.4196 50.628C58.0553 51.2435 58.7262 51.8215 59.4289 52.3592C59.2005 53.0516 59.1484 53.7899 59.2772 54.5075C59.4709 55.5192 60.0107 56.4319 60.8038 57.0891C61.597 57.7462 62.5942 58.1068 63.6243 58.109C63.8998 58.1088 64.1747 58.0835 64.4457 58.0332C65.1111 57.9175 65.7413 57.6509 66.2877 57.2539C66.8342 56.8569 67.2825 56.34 67.5982 55.7428C67.9139 55.1457 68.0886 54.4842 68.1089 53.809C68.1293 53.1338 67.9948 52.463 67.7156 51.8479C67.4365 51.2328 67.0202 50.6899 66.4987 50.2606C65.9771 49.8314 65.3642 49.5273 64.7069 49.3717C64.0496 49.2161 63.3654 49.2132 62.7068 49.363C62.0482 49.5129 61.4326 49.8116 60.9074 50.2363C60.2366 49.7119 59.5953 49.1508 58.9866 48.5556C59.9305 47.6744 61.1047 47.0785 62.3732 46.837C62.7894 46.7542 63.2126 46.7119 63.6369 46.7106C65.2531 46.7138 66.8179 47.2792 68.063 48.3098C69.308 49.3404 70.1557 50.7721 70.4608 52.3592L73.5441 68.509C73.8844 70.322 73.4913 72.1959 72.4512 73.7193C71.4111 75.2427 69.809 76.2912 67.9966 76.6345L68.0092 76.5966ZM62.9545 53.8504C63.3986 53.8652 63.8376 53.7511 64.2182 53.5218C64.631 53.2506 64.949 52.8575 65.128 52.3972C65.3661 52.6456 65.5284 52.9569 65.5956 53.2944C65.6408 53.7971 65.4845 54.2972 65.161 54.6847C64.8376 55.0721 64.3734 55.3152 63.8707 55.3605C63.368 55.4057 62.8679 55.2494 62.4804 54.9259C62.0929 54.6024 61.8498 54.1383 61.8046 53.6356C62.1537 53.7643 62.5199 53.841 62.8913 53.863L62.9545 53.8504Z" fill="white"/>
<path d="M68.1862 66.3608L64.4584 67.0685C64.2925 67.0842 64.1312 67.1325 63.9839 67.2106C63.8367 67.2887 63.7062 67.395 63.6 67.5235C63.4938 67.652 63.414 67.8001 63.365 67.9595C63.3161 68.1188 63.299 68.2862 63.3148 68.4522C63.3305 68.6181 63.3788 68.7794 63.4569 68.9266C63.535 69.0739 63.6413 69.2044 63.7698 69.3106C63.8983 69.4168 64.0464 69.4966 64.2058 69.5456C64.3651 69.5945 64.5326 69.6116 64.6985 69.5958H64.9386L68.6538 68.8882C68.8198 68.8575 68.978 68.7944 69.1196 68.7025C69.2612 68.6106 69.3833 68.4918 69.4789 68.3527C69.5745 68.2137 69.6418 68.0571 69.677 67.8921C69.7121 67.727 69.7144 67.5566 69.6837 67.3907C69.653 67.2247 69.5899 67.0665 69.4981 66.9249C69.4062 66.7833 69.2873 66.6612 69.1483 66.5656C69.0092 66.47 68.8527 66.4027 68.6876 66.3675C68.5226 66.3324 68.3522 66.3301 68.1862 66.3608Z" fill="white"/>
</svg>
