<svg width="96" height="97" viewBox="0 0 96 97" fill="none" xmlns="http://www.w3.org/2000/svg">
<path d="M48.5691 22.6421C34.7178 22.6421 23.5229 33.837 23.5229 47.6883C23.5229 61.5395 34.7178 72.7344 48.5691 72.7344C62.4204 72.7344 73.6153 61.5395 73.6153 47.6883C73.6153 33.837 62.4204 22.6421 48.5691 22.6421ZM48.5691 65.3344C38.8922 65.3344 30.923 57.3652 30.923 47.6883C30.923 38.0113 38.7973 30.0421 48.5691 30.0421C58.3409 30.0421 66.2153 38.0113 66.2153 47.6883C66.2153 57.3652 58.3409 65.3344 48.5691 65.3344Z" fill="white"/>
<path d="M48.5693 33.1733C40.6001 33.1733 34.054 39.6246 34.054 47.6887C34.054 55.7528 40.5052 62.2041 48.5693 62.2041C56.6335 62.2041 63.0847 55.658 63.0847 47.6887C63.0847 39.7195 56.5386 33.1733 48.5693 33.1733ZM48.5693 60.8759C41.2642 60.8759 35.3822 54.9939 35.3822 47.6887C35.3822 40.3836 41.2642 34.5015 48.5693 34.5015C55.8745 34.5015 61.7565 40.3836 61.7565 47.6887C61.7565 54.9939 55.8745 60.8759 48.5693 60.8759Z" fill="white"/>
<path d="M84.9999 25.0137V69.6035C84.9999 70.8368 84.0512 71.7855 82.8178 71.7855C81.4896 71.7855 80.5409 70.6471 80.6358 69.4137C80.8255 67.5163 81.3947 55.4676 81.6794 51.0086C81.7742 49.965 81.5845 48.9214 81.205 47.9727C80.446 45.7906 79.0229 41.3317 79.0229 36.4932C79.0229 30.9906 81.4896 26.1522 82.5332 24.4445C82.723 24.065 83.1973 23.7804 83.6717 23.7804C84.4306 23.6855 84.9999 24.2547 84.9999 25.0137Z" fill="white"/>
<path d="M18.3051 24.2548C18.3051 24.0651 18.2103 23.9702 18.0205 23.9702H17.9256C17.7359 23.9702 17.641 24.0651 17.641 24.2548L17.1667 33.6471C17.1667 33.8369 17.0718 33.9318 16.8821 33.9318H16.7872C16.5974 33.9318 16.5026 33.8369 16.5026 33.6471L16.0282 24.2548C16.0282 24.0651 15.9333 23.9702 15.7436 23.9702C15.5538 23.9702 15.459 24.0651 15.459 24.2548L14.9846 33.6471C14.9846 33.8369 14.8897 33.9318 14.7 33.9318H14.6051C14.4154 33.9318 14.3205 33.8369 14.3205 33.6471L13.8462 24.2548C13.8462 24.0651 13.7513 23.9702 13.5615 23.9702C13.3718 23.9702 13.2769 24.0651 13.2769 24.2548L12.8026 33.6471C12.8026 33.8369 12.7077 33.9318 12.5179 33.9318H12.4231C12.2333 33.9318 12.1385 33.8369 12.1385 33.6471L11.6641 24.2548C11.6641 24.0651 11.5692 23.9702 11.3795 23.9702H11.2846C11.0949 23.9702 11 24.0651 11 24.2548V38.5805C11 39.2446 11.5692 39.8138 12.2333 39.8138H12.3282C12.6128 39.8138 12.8974 40.0036 12.8974 40.383V62.3933V69.6036C12.8974 70.5523 13.6564 71.4061 14.7 71.4061C15.6487 71.4061 16.5026 70.6472 16.5026 69.6036V62.3933V40.383C16.5026 40.0984 16.6923 39.8138 17.0718 39.8138H17.1667C17.8308 39.8138 18.4 39.2446 18.4 38.5805V24.2548H18.3051Z" fill="white"/>
</svg>
