<svg width="96" height="97" viewBox="0 0 96 97" fill="none" xmlns="http://www.w3.org/2000/svg">
<path d="M86.1095 49.7529L78.5706 43.7022L71.0393 33.0291C70.2023 32.0775 69.172 31.3151 68.0173 30.7928C66.8625 30.2705 65.6097 30.0002 64.3423 30H13.9679C13.1836 30.0003 12.4221 30.2644 11.8059 30.7497C11.1898 31.235 10.7547 31.9134 10.5706 32.6758L8 43.2663V56.8333C8.00118 57.3554 8.19649 57.8585 8.54796 58.2447C8.89942 58.6309 9.38193 58.8726 9.90168 58.9228L18.8386 60.6741H19.5751C19.5601 60.4636 19.5451 60.2381 19.5451 60.0202C19.5451 58.3337 20.215 56.7163 21.4075 55.5238C22.6 54.3313 24.2174 53.6614 25.9039 53.6614C27.5903 53.6614 29.2077 54.3313 30.4002 55.5238C31.5927 56.7163 32.2627 58.3337 32.2627 60.0202C32.2627 60.2381 32.2476 60.4636 32.2326 60.6741H64.3272C64.3122 60.4636 64.2972 60.2381 64.2972 60.0202C64.2972 58.3337 64.9671 56.7163 66.1596 55.5238C67.3521 54.3313 68.9695 53.6614 70.6559 53.6614C72.3424 53.6614 73.9598 54.3313 75.1523 55.5238C76.3448 56.7163 77.0147 58.3337 77.0147 60.0202C77.0147 60.2381 76.9997 60.4636 76.9847 60.6741H82.7272L85.403 59.8398C86.0107 59.6532 86.5425 59.2765 86.92 58.765C87.2975 58.2535 87.5008 57.6343 87.5 56.9986V52.6467C87.5008 52.0908 87.3761 51.5419 87.1354 51.0409C86.8946 50.5399 86.544 50.0996 86.1095 49.7529ZM9.78889 55.3902V48.5503L11.5251 49.129L11.9236 50.9255C12.1178 51.8012 12.0131 52.7167 11.6262 53.526C11.2393 54.3352 10.5924 54.9916 9.78889 55.3902ZM28.0159 43.8376L19.8683 43.9052C16.7402 43.9321 13.6308 43.421 10.6759 42.3944L9.6236 42.0412L11.7206 33.3974H28.0159V43.8376ZM53.1505 43.6196L29.6094 43.8301V33.3974H53.1505V43.6196ZM61.1704 47.265H56.9086C56.7821 47.2658 56.6604 47.2164 56.5702 47.1277C56.4801 47.0389 56.4288 46.918 56.4276 46.7915C56.4285 46.6642 56.4794 46.5423 56.5695 46.4523C56.6595 46.3623 56.7813 46.3113 56.9086 46.3104H61.1704C61.2336 46.3102 61.2963 46.3225 61.3547 46.3467C61.4132 46.3708 61.4663 46.4062 61.511 46.4509C61.5557 46.4956 61.5911 46.5487 61.6152 46.6072C61.6393 46.6656 61.6516 46.7283 61.6514 46.7915C61.6514 46.8543 61.639 46.9165 61.6147 46.9745C61.5905 47.0324 61.5549 47.085 61.5102 47.1291C61.4654 47.1732 61.4123 47.2079 61.3539 47.2312C61.2956 47.2546 61.2332 47.266 61.1704 47.265ZM54.7514 43.6121V33.3974H69.4909L76.3758 43.4092L54.7514 43.6121ZM85.9065 56.2846L82.7723 55.8261C81.7837 55.681 80.8805 55.1849 80.2276 54.4286C79.5748 53.6723 79.2161 52.7062 79.217 51.7071L85.9065 52.9924V56.2846Z" fill="white"/>
<path d="M70.6559 54.6685C69.2379 54.6706 67.8787 55.2354 66.8767 56.2387C65.8748 57.2421 65.3119 58.6021 65.3118 60.0201C65.3118 60.2388 65.3269 60.4573 65.3569 60.674C65.5162 61.9682 66.1433 63.1594 67.12 64.0233C68.0968 64.8872 69.3557 65.3641 70.6597 65.3641C71.9636 65.3641 73.2226 64.8872 74.1993 64.0233C75.1761 63.1594 75.8032 61.9682 75.9624 60.674C75.9924 60.4573 76.0075 60.2388 76.0075 60.0201C76.0057 58.6013 75.4412 57.2412 74.438 56.238C73.4348 55.2347 72.0747 54.6703 70.6559 54.6685ZM73.1964 60.674C73.0523 61.2373 72.7247 61.7366 72.2654 62.0931C71.8061 62.4497 71.2412 62.6432 70.6597 62.6432C70.0782 62.6432 69.5133 62.4497 69.054 62.0931C68.5947 61.7366 68.2671 61.2373 68.1229 60.674C68.0625 60.4613 68.0321 60.2412 68.0327 60.0201C68.0321 59.6747 68.0996 59.3325 68.2313 59.0133C68.363 58.694 68.5564 58.4038 68.8004 58.1594C69.0444 57.9149 69.3342 57.721 69.6533 57.5887C69.9723 57.4563 70.3143 57.3882 70.6597 57.3882C71.0051 57.3882 71.3471 57.4563 71.6661 57.5887C71.9851 57.721 72.2749 57.9149 72.5189 58.1594C72.7629 58.4038 72.9563 58.694 73.0881 59.0133C73.2198 59.3325 73.2873 59.6747 73.2866 60.0201C73.2872 60.2412 73.2569 60.4613 73.1964 60.674Z" fill="white"/>
<path d="M25.9039 54.6685C24.4851 54.6703 23.125 55.2347 22.1217 56.238C21.1185 57.2412 20.5541 58.6013 20.5522 60.0201C20.5523 60.2388 20.5674 60.4573 20.5973 60.674C20.7566 61.9682 21.3836 63.1596 22.3604 64.0235C23.3371 64.8874 24.5961 65.3643 25.9001 65.3643C27.2041 65.3643 28.4631 64.8874 29.4398 64.0235C30.4166 63.1596 31.0437 61.9682 31.2029 60.674C31.2329 60.4573 31.2479 60.2388 31.248 60.0201C31.2478 58.6021 30.685 57.2421 29.683 56.2387C28.681 55.2354 27.3218 54.6706 25.9039 54.6685ZM28.4368 60.674C28.2927 61.2373 27.9651 61.7366 27.5058 62.0931C27.0465 62.4497 26.4816 62.6432 25.9001 62.6432C25.3186 62.6432 24.7537 62.4497 24.2944 62.0931C23.8351 61.7366 23.5075 61.2373 23.3633 60.674C23.3029 60.4613 23.2726 60.2412 23.2731 60.0201C23.2731 59.6751 23.3411 59.3335 23.4731 59.0148C23.6051 58.696 23.7986 58.4064 24.0426 58.1625C24.2865 57.9186 24.5761 57.7251 24.8948 57.5931C25.2135 57.461 25.5551 57.3931 25.9001 57.3931C26.2451 57.3931 26.5867 57.461 26.9054 57.5931C27.2241 57.7251 27.5137 57.9186 27.7577 58.1625C28.0016 58.4064 28.1951 58.696 28.3271 59.0148C28.4591 59.3335 28.5271 59.6751 28.5271 60.0201C28.5277 60.2412 28.4973 60.4613 28.4368 60.674Z" fill="white"/>
</svg>
