<svg width="96" height="97" viewBox="0 0 96 97" fill="none" xmlns="http://www.w3.org/2000/svg">
<path d="M31.9414 24.3136C32.4466 24.3136 32.8473 23.9115 32.8473 23.4045V21.5512C32.8473 21.0442 32.4466 20.6421 31.9414 20.6421C31.4361 20.6421 31.0354 21.0442 31.0354 21.5512V23.4045C31.0354 23.9115 31.4361 24.3136 31.9414 24.3136Z" fill="white"/>
<path d="M31.0354 28.8596C31.0354 29.3666 31.4361 29.7687 31.9414 29.7687C32.4466 29.7687 32.8473 29.3666 32.8473 28.8596V27.0063C32.8473 26.4993 32.4466 26.0972 31.9414 26.0972C31.4361 26.0972 31.0354 26.4993 31.0354 27.0063V28.8596Z" fill="white"/>
<path d="M28.2656 24.2964C27.7603 24.2964 27.3596 24.6986 27.3596 25.2058C27.3596 25.7129 27.7603 26.1152 28.2656 26.1152H30.1124C30.6176 26.1152 31.0184 25.7129 31.0184 25.2058C31.0184 24.6986 30.6176 24.2964 30.1124 24.2964H28.2656Z" fill="white"/>
<path d="M36.4539 25.2058C36.4539 24.6986 36.0532 24.2964 35.5479 24.2964H33.7011C33.1959 24.2964 32.7952 24.6986 32.7952 25.2058C32.7952 25.7129 33.1959 26.1152 33.7011 26.1152H35.5479C36.0532 26.1152 36.4539 25.7129 36.4539 25.2058Z" fill="white"/>
<path d="M71.2495 72.2316C71.7547 72.2316 72.1555 71.8295 72.1555 71.3225V69.4692C72.1555 68.9622 71.7547 68.5601 71.2495 68.5601C70.7442 68.5601 70.3435 68.9622 70.3435 69.4692V71.3225C70.3435 71.8295 70.7442 72.2316 71.2495 72.2316Z" fill="white"/>
<path d="M71.2495 74.0146C70.7442 74.0146 70.3435 74.4168 70.3435 74.9238V76.7771C70.3435 77.2841 70.7442 77.6862 71.2495 77.6862C71.7547 77.6862 72.1555 77.2841 72.1555 76.7771V74.9238C72.1555 74.4168 71.7547 74.0146 71.2495 74.0146Z" fill="white"/>
<path d="M69.4195 72.2139H67.5727C67.0675 72.2139 66.6667 72.6161 66.6667 73.1233C66.6667 73.6304 67.0675 74.0326 67.5727 74.0326H69.4195C69.9248 74.0326 70.3255 73.6304 70.3255 73.1233C70.3255 72.6161 69.9248 72.2139 69.4195 72.2139Z" fill="white"/>
<path d="M74.8736 72.2139H73.0268C72.5216 72.2139 72.1208 72.6161 72.1208 73.1233C72.1208 73.6304 72.5216 74.0326 73.0268 74.0326H74.8736C75.3789 74.0326 75.7796 73.6304 75.7796 73.1233C75.7796 72.6161 75.3789 72.2139 74.8736 72.2139Z" fill="white"/>
<path d="M59.7306 60.8542C64.7483 58.2842 67.7972 54.1056 68.0237 49.5423C70.4977 48.3709 72.1529 45.8708 72.1703 43.0909C72.1877 41.1677 71.456 39.3494 70.1144 37.9682C68.7729 36.6045 66.9609 35.8177 65.0445 35.8002C63.3022 35.8002 61.6645 36.3772 60.3578 37.4787C60.3055 37.4437 60.2533 37.4262 60.201 37.3912C60.4101 36.9542 60.532 36.3947 60.5495 35.7828C60.5495 34.2092 59.8003 33.0553 58.7549 33.0378L51.6465 32.9679C51.7162 32.6357 51.7511 32.286 51.7685 31.9364C51.7685 30.9398 51.5246 29.9957 51.0716 29.2614C50.5315 28.4222 49.7649 27.9326 48.9286 27.9326C48.0923 27.9326 47.3083 28.3872 46.7508 29.2264C46.2804 29.9432 46.0016 30.8873 46.0016 31.8839C46.0016 32.2336 46.0365 32.5833 46.0887 32.9154L38.8061 32.8455C37.7433 32.8455 36.9768 33.9819 36.9593 35.5555C36.9593 36.2198 37.0987 36.7793 37.3252 37.2514C35.4436 38.2654 33.8407 39.5242 32.5863 40.9404L27.6905 37.4087C27.5337 37.3038 27.3595 37.2339 27.1679 37.2339L20.8957 37.164C20.5473 37.164 20.2163 37.3738 20.0769 37.6885C19.9375 38.0207 19.9898 38.3878 20.2163 38.6675L29.3805 49.1227C29.4676 52.9167 31.5235 56.5008 35.0777 59.1408C35.8094 59.6828 36.6109 60.1724 37.4472 60.6444L37.4123 64.6482C37.4123 64.9454 37.5517 65.2077 37.7782 65.3825C37.9176 65.4874 38.1092 65.5573 38.3009 65.5573L58.7724 65.7671C59.2602 65.7671 59.6783 65.365 59.6783 64.8755L59.7132 60.8892L59.7306 60.8542ZM22.8993 38.9823L26.8717 39.0172L31.4887 42.3391C30.5827 43.6853 29.9555 45.119 29.6419 46.6401L22.9168 38.9823H22.8993ZM65.027 37.601C66.4731 37.601 67.8147 38.1955 68.8252 39.227C69.8357 40.2586 70.3758 41.6223 70.3758 43.0734C70.3583 44.8917 69.4001 46.5527 67.9366 47.5317C67.4662 44.0875 65.3406 40.888 61.9781 38.5102C62.8666 37.9158 63.9294 37.5836 65.027 37.601ZM48.8938 29.7159C49.1028 29.7159 49.3468 29.9083 49.5384 30.2055C49.8172 30.6426 49.9565 31.2545 49.9565 31.9014C49.9565 32.2685 49.8869 32.6182 49.7997 32.9329H47.9355C47.8484 32.6007 47.7962 32.2336 47.7962 31.8839C47.7962 31.237 47.9704 30.6251 48.2491 30.2055C48.4582 29.8908 48.6847 29.7159 48.9112 29.7159H48.8938ZM39.2243 63.7215L39.2591 60.1199C39.2591 59.7703 39.0675 59.473 38.7713 59.3157C38.719 59.2807 38.6842 59.2283 38.6319 59.2108C33.9278 56.798 31.1402 52.8817 31.175 48.7731C31.2099 44.6469 34.0846 40.8005 38.8235 38.4752C38.9107 38.4228 38.9803 38.3703 39.05 38.3004L48.7021 38.4053C49.19 38.4053 49.6081 38.0032 49.6081 37.5136C49.6081 37.0241 49.2074 36.6045 48.7195 36.6045L38.9281 36.4996C38.8584 36.3597 38.7364 36.045 38.7364 35.573C38.7364 35.1009 38.8584 34.7862 38.9455 34.6463L47.2212 34.7337C47.2212 34.7337 47.2386 34.7337 47.2561 34.7337L50.305 34.7687C50.305 34.7687 50.305 34.7687 50.3224 34.7687L58.5459 34.8561C58.6156 34.996 58.7375 35.3107 58.7375 35.7828C58.7375 36.2548 58.6156 36.5695 58.5284 36.7094L56.0196 36.6744C55.5318 36.6744 55.1136 37.0765 55.1136 37.5661C55.1136 38.0556 55.5143 38.4752 56.0022 38.4752H58.5459C58.6156 38.5626 58.6852 38.6326 58.7724 38.685C63.4764 41.0978 66.264 45.0141 66.2118 49.1227C66.1769 53.2489 63.3022 57.0953 58.5633 59.4206C58.511 59.4381 58.4936 59.473 58.4413 59.508C58.1277 59.6479 57.9012 59.9626 57.9012 60.3122L57.8664 63.9139L39.1894 63.7215H39.2243Z" fill="white"/>
<path d="M58.4764 41.675C58.1802 42.0771 58.2499 42.6366 58.6506 42.9338C60.9504 44.6822 61.7693 48.004 61.1072 52.7945C61.0375 53.2841 61.386 53.7387 61.8738 53.8086C61.9435 53.8086 62.0132 53.8086 62.0829 53.8086C62.4836 53.7736 62.832 53.4589 62.8843 53.0393C63.6509 47.5495 62.5881 43.6506 59.7308 41.4826C59.3301 41.1854 58.7726 41.2554 58.4764 41.6575V41.675Z" fill="white"/>
</svg>
