<svg width="84" height="99" viewBox="0 0 84 99" fill="none" xmlns="http://www.w3.org/2000/svg">
<path d="M16.9458 88.7186C16.3289 93.2505 19.5022 97.3306 24.0276 97.5935C29.4395 97.9119 34.4008 96.679 38.6307 93.0431C42.4726 89.7405 45.8676 86.0453 48.6419 81.8059C50.5038 78.9624 52.2585 76.0522 54.0576 73.1679C54.1684 72.9939 54.2497 72.8014 54.3901 72.5348C53.0934 70.6539 52.3398 68.5323 52.0036 66.2664C51.8374 65.1482 51.697 64.0152 51.6675 62.8897C51.5456 57.8431 52.4469 53.0002 54.0576 48.1943C56.7248 40.2376 60.0791 32.6177 64.4161 25.4533C66.6954 21.6879 69.2075 18.0631 71.6124 14.3717C71.8488 14.0051 72.0594 13.6238 72.1074 13.1017C71.9116 13.2165 71.701 13.3127 71.52 13.4497C67.7446 16.3821 64.0651 19.4219 60.5852 22.7172C55.8493 27.2009 52.3915 32.5474 49.5138 38.3419C46.8835 43.6402 44.1904 48.9052 41.5232 54.185C41.3385 54.5516 41.1169 54.9033 40.9322 55.2328C39.484 54.9774 39.1589 54.5108 39.4951 53.2853C39.5949 52.9225 39.6835 52.5411 39.8608 52.2153C40.6846 50.6972 40.873 49.0496 41.0134 47.3649C41.7227 38.9824 43.0711 30.7072 45.1916 22.5654C45.2728 22.2507 45.3282 21.9285 45.2433 21.5361C45.077 21.7952 44.8997 22.0507 44.7446 22.3173C41.8299 27.2861 39.5764 32.5807 37.2047 37.8124C35.5423 41.4816 33.9243 45.1693 32.2397 48.8274C30.2966 53.0372 28.0025 57.0434 24.8957 60.5052C23.6692 61.8678 22.3061 63.1488 20.8395 64.2448C17.4039 66.8032 13.4807 67.5215 9.38749 66.4404C4.38556 65.1186 1.44498 61.6938 0.373665 56.6398C-0.291288 53.5149 -0.0807079 50.4751 1.10143 47.4908C2.62344 43.6402 4.45944 39.9784 7.30027 36.9127C9.11781 34.9541 11.1607 33.336 13.7466 32.4585C16.9015 31.3848 19.746 31.9291 22.4354 33.8063C24.8107 35.4687 26.3771 39.3712 24.8994 42.5702C24.0128 44.4844 22.9895 46.3023 21.6115 47.9129C20.5476 49.1533 19.2547 50.053 17.6772 50.501C17.0973 50.6639 16.4766 50.8527 15.7341 50.3307C16.1294 50.1826 16.3658 50.0493 16.6207 50.0086C18.1132 49.7568 19.432 49.1385 20.4922 48.0684C22.5129 46.0283 23.9574 43.6143 24.5558 40.804C25.3722 36.9682 22.3061 32.3956 17.2302 33.1694C15.0691 33.4989 13.1666 34.432 11.4599 35.7871C9.70519 37.183 8.21273 38.8306 6.97518 40.6893C4.93968 43.7476 3.36966 47.0428 2.3907 50.5861C1.5004 53.8185 1.8809 57.0249 3.17756 60.0757C4.77715 63.8486 7.51085 65.4037 12.0732 65.1889C15.989 65.0075 19.0515 63.0081 21.7113 60.3127C24.6186 57.3581 26.8647 53.9184 28.7598 50.2455C29.5282 48.7534 30.2597 47.2428 30.9579 45.7173C33.1855 40.8337 35.3798 35.9315 37.6074 31.0442C41.5122 22.4913 46.2592 14.4605 52.3029 7.23318C52.458 7.04805 52.591 6.8407 52.8016 6.5482C52.2105 6.36678 51.7303 6.51858 51.2796 6.62595C47.1716 7.61453 43.0452 8.55498 38.9669 9.66204C35.0806 10.7173 32.3764 13.2165 30.9135 16.9894C30.2079 18.811 30.3409 20.603 31.4492 22.3802C30.666 22.4839 30.2855 21.9693 29.9641 21.4805C28.8374 19.7625 28.5456 17.8706 29.2253 15.9415C30.5219 12.2612 33.082 9.77311 36.791 8.61421C38.8634 7.96627 41.0245 7.62194 43.1376 7.09248C46.8761 6.15944 50.622 5.27083 54.4492 4.7895C54.7706 4.74877 55.092 4.60067 55.3801 4.44146C56.3332 3.9157 57.1459 4.11194 57.87 4.87096C58.184 5.19678 58.498 5.5226 58.8453 5.88545C58.668 6.11501 58.5793 6.32605 58.4204 6.42232C56.3849 7.65897 55.0144 9.51393 53.799 11.4874C50.8289 16.3044 48.6789 21.462 47.2714 26.964C45.9415 32.1697 44.6337 37.3755 43.6437 42.6553C43.5772 43.0034 43.555 43.3588 43.725 43.7772C43.9171 43.4254 44.1202 43.0811 44.2976 42.722C45.827 39.6415 47.2566 36.5054 48.8931 33.4878C51.5788 28.5413 55.0033 24.1538 59.2886 20.4845C62.122 18.0594 64.9961 15.6824 67.8739 13.309C69.9426 11.6022 72.1 9.99526 74.1134 8.22545C75.3657 7.1258 81.2764 1.30172 82.0891 0.453837C82.6284 -0.108948 82.9572 -0.120059 83.5077 0.265004C84.0507 0.646365 84.1541 0.957383 83.7699 1.53128C83.1382 2.47172 82.4844 3.39735 81.7788 4.28596C79.5327 7.1184 77.5785 10.1471 75.6649 13.2091C72.5544 18.1927 69.3109 23.0911 66.2669 28.1155C61.4016 36.15 57.4969 44.6473 54.7706 53.6407C53.256 58.6392 52.8755 63.7783 54.0798 68.9396C54.2128 69.5098 54.427 70.0615 54.6265 70.6132C54.7078 70.839 54.8482 71.0464 55.055 71.4462C61.3832 61.6975 67.8739 52.2412 76.2227 43.9327C75.7646 43.9919 75.5098 44.003 75.2622 44.0549C73.707 44.3881 72.1591 44.7584 70.6002 45.062C68.7789 45.4174 67.2237 46.2653 65.8421 47.4797C62.8645 50.0974 60.4781 53.1187 59.4216 57.073C58.9672 57.0434 58.716 56.8212 58.716 56.4621C58.7197 55.9252 58.7381 55.3624 58.8896 54.8515C60.1456 50.5787 62.9163 47.4501 66.5329 45.0435C67.4084 44.4622 68.5314 44.1919 69.5769 43.9327C71.8082 43.3773 74.0838 42.9774 76.3114 42.4073C77.6782 42.0555 79.0044 41.5223 80.3344 41.0336C81.1877 40.7189 82.0263 40.419 82.8021 41.1262C83.02 41.3261 83.0976 41.6779 83.2417 41.9592C82.9646 42.0703 82.6875 42.1888 82.4068 42.2962C81.9524 42.4665 81.4094 42.522 81.0473 42.8071C79.795 43.7883 78.5464 44.7843 77.4049 45.8913C73.8363 49.3421 70.7664 53.2224 67.7704 57.173C64.0171 62.1232 60.4449 67.1994 57.1201 72.4496C56.8984 72.8013 56.6989 73.1642 56.433 73.6196C56.8098 74.0195 57.1349 74.4564 57.5486 74.7859C59.4474 76.3114 61.5605 77.4332 64.0319 77.5406C65.0921 77.5887 66.23 77.4295 67.2311 77.0778C71.3723 75.6227 75.0665 73.4826 77.6672 69.7801C78.8197 68.1399 79.7433 66.4182 79.891 64.3818C80.0277 62.5268 79.5623 60.7755 78.5538 59.2353C77.065 56.9545 73.9877 56.4176 71.6678 57.9986C70.2086 58.9946 68.8381 60.1054 68.247 62.1566C67.8295 61.1717 67.9736 60.4571 68.3837 59.8203C69.6582 57.832 71.2577 56.2325 73.8215 56.3547C76.5626 56.488 78.5944 57.8468 79.6842 60.4053C80.6077 62.575 80.6816 64.8076 79.8061 67.0291C78.4466 70.4836 76.2707 73.3123 73.1972 75.3783C71.8488 76.2854 70.3748 77.0259 68.9008 77.7183C66.2817 78.9439 63.5886 78.9105 61.0064 77.6591C59.2479 76.8075 57.604 75.7189 55.7791 74.66C55.6203 74.8822 55.3506 75.2376 55.1105 75.6153C53.5737 78.0182 52.0849 80.4545 50.5075 82.8315C47.6112 87.1968 44.0907 90.9956 40.0936 94.3797C36.9683 97.027 33.3517 98.3451 29.3435 98.8116C27.2046 99.0597 25.0878 99.1338 22.9821 98.5858C18.8631 97.5158 15.6824 93.6466 15.4201 89.3813C15.3979 89.0518 15.3684 88.7222 15.3351 88.3335C14.515 88.0854 13.6912 87.9077 12.9339 87.5856C11.785 87.0968 10.6324 86.5785 9.56481 85.9342C8.17949 85.1012 7.74726 83.8016 8.17579 82.2354C8.30508 81.7615 8.46025 81.2913 8.59693 80.8581C9.22864 80.8618 9.21016 81.2172 9.19169 81.5616C9.15475 82.2724 9.08456 82.987 9.07717 83.6979C9.06609 84.5051 9.37272 85.1937 10.082 85.6121C11.6816 86.5563 13.4179 87.1191 15.3536 87.419C15.5235 86.012 15.6602 84.6865 15.8449 83.3684C16.5764 78.2145 18.7559 73.6714 21.7963 69.5209C23.4882 67.2142 25.4794 65.163 27.6663 63.3155C29.4876 61.7752 31.5194 60.657 33.8726 60.1572C37.6406 59.3575 41.3422 61.9159 41.8151 65.7591C41.9185 66.6033 41.7781 67.5327 41.5232 68.3509C40.4852 71.7128 38.7341 74.7156 36.6986 77.5628C32.9158 82.85 27.8843 86.3563 21.6152 88.0151C20.1413 88.3853 18.5823 88.4742 16.9458 88.7186ZM16.9162 87.4782C17.3115 87.5115 17.5553 87.5597 17.7955 87.5485C18.2979 87.5263 18.8077 87.5263 19.2953 87.419C24.4672 86.2601 29.096 84.0571 32.853 80.2138C36.0041 76.9889 38.3019 73.2086 39.9901 69.0507C40.3041 68.2806 40.5332 67.4586 40.6883 66.6366C41.3459 63.1229 38.4238 60.309 34.9734 61.0939C32.8899 61.5679 31.0391 62.5231 29.4026 63.8708C24.4228 67.9807 20.64 72.968 18.4383 79.0957C17.4815 81.7689 17.0677 84.5273 16.9162 87.4782Z" fill="#574735"/>
</svg>
